@startuml Power Manager

class SystemApplication{
    + showReport(): void
}



class PowerGrid{
    
}


interface RenewableEnergy{
    + chargeImmersionHeater(): void
    + checkBatteryStatus(): boolean
}

class SolarPower{

}

class WindPower{

}



class Battery{
    - percentage: int
    - enteringPower: double
    - leavingPower: double
    - isFull: bool

}

interface PowerSource{
    - consumedPower: double

    + consume(): void
}

interface PowerConsumer{
    - consumption: double

    + charge(): void
}

class Inverter{
    + flowControl(): void
    + report(): void
}

interface CloudAPI{

}

abstract class HouseholdAppliance{
  - isON: boolean
}

class ImmersionHeater{
}

abstract class Heating{
    + heat(): void
}



class ElectricKettle{
}

class ElectricHeater{

}



class ReportGenerator{
    + generateReport(): Report
}



class Controller{
    + turnOn(): void
    + turnOff(): void
} 



Battery --> RenewableEnergy
PowerSource <|.. PowerGrid
PowerSource <|.. Battery
PowerConsumer <|.. Battery
PowerConsumer <|.. PowerGrid
PowerConsumer <|.. HouseholdAppliance

RenewableEnergy <|.. SolarPower
RenewableEnergy <|.. WindPower

HouseholdAppliance <|-- ElectricKettle




Inverter "1"--"1" CloudAPI
Inverter "1"--"1..*" PowerSource
Inverter "1"--"1..*" PowerConsumer


ReportGenerator "0..1"--"1" RenewableEnergy
ReportGenerator "0..1"--"1" PowerGrid
ReportGenerator "0..1"--"1" PowerConsumer

Controller --> HouseholdAppliance


HouseholdAppliance <|-- Heating

Heating <|-- ImmersionHeater
Heating <|-- ElectricHeater

RenewableEnergy "1"--"1" ImmersionHeater



SystemApplication --|> ReportGenerator
SystemApplication --|> Controller
SystemApplication "1"--"1" CloudAPI
@enduml